<?xml version="1.0" encoding="UTF-8"?>
<svg id="Layer_1" data-name="Layer 1" xmlns="http://www.w3.org/2000/svg" viewBox="0 0 2464 1696">
  <path d="M942.71,1631.77c-74.65,9.78-160.86-1.76-230.69-30.63-96.25-39.81-170.2-116.41-201.83-216.25-42.63-134.57-5.08-283.85,57.29-406.22,20.57-40.37,44.04-79,69.98-116.28,98.65-141.78,232.72-258.57,381.4-345.36l37.44-21.86c.4-.23-2.27-2.61-2.78-2.46-14.71,4.11-31.58,9.45-46.27,15.23l-67.97,26.71c-83.19,32.69-199.82,106.26-270.44,163.28-36.04,29.1-70.25,59.14-102.71,92.19-25.82,26.29-50.24,52.87-73.6,81.22-5.38,6.53-21.8,22.15-28.74,16.47-7.94-6.49,2.03-33.18,6.05-42.04,33.34-73.45,84.31-148.9,135.85-211.25,48.67-58.88,103.36-112.02,162.48-160.27,75.85-61.92,162.33-116.02,251.38-156.58,65.08-29.64,121.57-48.96,191.68-64.53,138.91-30.85,301.59-26.02,419.96,61.83,51.9,38.52,94.37,95.32,113.3,157.4l7.98,26.18,2.25,1.08c1.66-22.21,2.93-43.25,1.73-65.41-5.48-101.22-45.31-189.79-125.92-252.89-37.21-29.12-78.68-51.1-123.3-66.45-6.71-2.31-18.12-5.89-18.34-12.4-.31-8.92,24.02-11.18,31.27-11.64,124.31-7.89,255.07,10.49,351.53,95.43,47.97,42.24,82.19,96.6,98.74,158.43,7.53,28.11,12.3,56.12,13.66,85.32,2.34,50.24-8.97,107.07-22.69,155.46-15.06,53.11-35.27,103.62-59.56,153.15-14.12,28.79-27.92,57.02-45.42,83.99-63.84,98.38-147.59,185.61-239.39,258.42-39.64,31.44-79.26,61.82-123.29,87.02l-82.24,47.07c-1.28.73-1.15,4.27.43,3.88,34.2-8.43,72.56-22.51,106.41-36.52,96.89-40.1,186.85-93.31,269.49-157.36,43.52-33.73,84.65-69.77,123.16-109.03,25.89-26.39,50.95-52.57,72.88-82.17,5.13-6.93,10.52-12.56,16.29-18.75,8.64-9.27,19.72-8.43,23.04-4.79,1.93,2.12,2.73,6.65,1.81,9.67-5.33,17.52-12.77,33.16-20.38,49.73-10.95,23.87-22.42,46.36-36.04,68.86-13.43,22.19-25.96,43.72-41.08,64.95-20.04,28.12-40.77,55.36-63.09,81.86-64.58,76.7-138.53,144.38-220.43,202.33-31.6,22.36-64.43,42.87-98.06,62.15-73.88,42.37-152.31,75.41-234.24,98.56-46.13,13.03-92.71,22.1-140.22,27.02-40.22,4.16-79.15,4.42-119.51.71-90.18-8.29-180.53-40.96-245.57-105.71-36-35.84-62.56-80.03-78.62-128.08-.29-.88-1.97-2.09-2.48-2.03-7.55,83.48,16.12,173.27,64.09,242.19,36.62,52.61,87.09,92.66,145.82,117.9,7.53,3.24,28.37,12.96,27.58,21.76-.6,6.73-14.08,8.75-20.09,9.54ZM1155.58,1158.91c96.69-19.38,186.97-70.64,259.56-135.77,39.24-35.21,73.11-75.23,100.65-120.15,27.55-44.93,46.82-97.54,51.86-150.04,2.39-24.91.66-48.92-5.45-73.1-11.94-47.29-43.55-85.24-87.26-106.85-83.71-41.37-188.36-21.8-271.35,13.56-66.82,28.47-126.88,69.51-178.97,120.02-59.91,58.09-108.62,129.65-130.01,210.93-7.3,27.73-10.6,54.79-8.86,83.59,3.24,53.67,31.32,103.33,76.68,132.35,54.93,35.15,129.9,38.13,193.14,25.45Z"/>
</svg>